<svg width="14" height="14" viewBox="0 0 14 14" fill="none" xmlns="http://www.w3.org/2000/svg">
  <rect opacity="0.01" width="14" height="14" fill="black" />
  <path
    d="M4 1H2.19922C2.05122 1 2 1.04284 2 1.00684V12.9932C2 12.9562 2.05234 13 2.19434 13H11.8057C11.9397 13 12 12.9502 12 12.9932V1.00684C12 1.04484 11.9458 1 11.8008 1H10V0H11.8008C12.4627 0 12.9999 0.449912 13 1.00684V12.9932C12.9999 13.5501 12.4526 14 11.8057 14H2.19434C1.5354 14 1.00011 13.5501 1 12.9932V1.00684C1.0001 0.449912 1.53028 0 2.19922 0H4V1ZM9.50879 9C9.7849 9.00005 10.0088 9.22389 10.0088 9.5C10.0088 9.77611 9.7849 9.99995 9.50879 10H4.49121C4.21859 9.99509 3.99996 9.77267 4 9.5C3.99996 9.22733 4.21859 9.00491 4.49121 9H9.50879ZM9.50879 6C9.7849 6.00005 10.0088 6.22389 10.0088 6.5C10.0088 6.77611 9.7849 6.99995 9.50879 7H4.49121C4.21859 6.99509 3.99996 6.77267 4 6.5C3.99996 6.22733 4.21859 6.00491 4.49121 6H9.50879ZM9.50879 3C9.78493 3 10.0088 3.22386 10.0088 3.5C10.0088 3.77614 9.78493 4 9.50879 4H4.49121C4.21859 3.99509 3.99996 3.77267 4 3.5C3.99996 3.22733 4.21859 3.00491 4.49121 3H9.50879ZM9 1H5V0H9V1Z"
    fill="#8C92A4" />
</svg>