<svg width="18" height="18" viewBox="0 0 18 18" fill="none" xmlns="http://www.w3.org/2000/svg">
<path d="M9.19141 1.0127C10.1502 1.1381 11.0977 2.18073 11.0977 3.44824L11.0869 3.69824C11.0846 3.72452 11.0792 3.75034 11.0762 3.77637C11.0887 3.66895 11.0986 3.55966 11.0986 3.44824C11.0986 3.43821 11.0968 3.42798 11.0967 3.41797C11.5174 3.55026 11.9187 3.71923 12.293 3.92383C12.8104 2.93093 13.2104 2.0266 14.0312 2.23145C14.2769 2.29302 14.4578 2.4946 14.583 2.71484C15.1954 3.79294 15.5874 4.71697 14.3662 5.76855C14.9545 6.61961 15.2948 7.62129 15.2949 8.69336L15.2812 9.04492C15.2726 9.16096 15.2601 9.27654 15.2441 9.39062C15.7231 10.1009 15.9949 10.9036 15.9951 11.7539L15.9863 12.0234C15.7992 14.7953 12.7422 16.9998 9 17L8.63965 16.9932C5.06346 16.8568 2.19573 14.7057 2.01465 12.0234L2.00586 11.7539C2.00605 10.9041 2.27646 10.1015 2.75488 9.3916C2.73887 9.27723 2.72621 9.16131 2.71777 9.04492L2.70508 8.69336C2.70518 7.62066 3.04488 6.61798 3.63379 5.7666C2.56833 4.84738 2.73563 4.02512 3.2041 3.1123L3.4209 2.71484C3.54618 2.49454 3.7268 2.29286 3.97266 2.23145C4.58769 2.07828 4.96642 2.54802 5.33496 3.21094L5.70898 3.92285C6.08283 3.71868 6.48321 3.54897 6.90332 3.41699C6.92331 2.07936 8.21919 1 9 1L9.19141 1.0127ZM13.7764 3.32422C13.7102 3.4139 13.6318 3.53508 13.541 3.69824C13.427 3.90328 13.3184 4.11956 13.1797 4.38574L12.708 5.29102L11.8135 4.80078C11.5355 4.64881 11.2385 4.51984 10.9277 4.41406C10.9313 4.40442 10.934 4.39447 10.9375 4.38477C10.6223 5.27184 9.87427 5.89635 9 5.89648L8.78516 5.88379C8.00039 5.79081 7.34467 5.19273 7.05762 4.37305C7.06246 4.38689 7.06623 4.40132 7.07129 4.41504C6.76157 4.52065 6.46569 4.64939 6.18848 4.80078L5.29297 5.28906L4.82227 4.38477C4.68347 4.11839 4.57496 3.90243 4.46094 3.69727C4.37069 3.53494 4.29238 3.41469 4.22656 3.3252C3.95851 3.80875 3.84949 4.08623 3.83984 4.2959C3.83466 4.41037 3.846 4.62919 4.28711 5.00977L4.96777 5.59668L4.45605 6.33594C3.97514 7.03134 3.70518 7.83738 3.70508 8.69336C3.70508 8.87954 3.71901 9.06641 3.74512 9.25293L3.79883 9.63281L3.58398 9.9502C3.25221 10.4425 3.05901 10.9719 3.01562 11.5186L3.00586 11.7539C3.00589 12.817 3.57824 13.8558 4.6543 14.6631C5.73086 15.4705 7.2643 15.9999 9 16C10.7358 15.9999 12.27 15.4706 13.3467 14.6631C14.3552 13.9064 14.9214 12.9459 14.9883 11.9531L14.9951 11.7539C14.9949 11.1243 14.795 10.5138 14.415 9.9502L14.2002 9.63184L14.2539 9.25195C14.2804 9.06239 14.2949 8.87633 14.2949 8.69336C14.2948 7.83842 14.0249 7.03273 13.5439 6.33691L13.0322 5.59766L13.7139 5.01074C14.157 4.62916 14.1681 4.40988 14.1631 4.2959C14.1537 4.08651 14.0451 3.80889 13.7764 3.32422ZM11.5107 6.25195C12.8464 6.12729 14 7.17809 14 8.51953C14 9.86097 12.8464 10.9118 11.5107 10.7871L9.36328 10.5869C9.12161 10.5644 8.87839 10.5644 8.63672 10.5869L6.48926 10.7871L6.24121 10.7969C5.01391 10.7793 4 9.77716 4 8.51953C4 7.17809 5.15362 6.12729 6.48926 6.25195L8.63672 6.45215C8.87839 6.47468 9.12161 6.47468 9.36328 6.45215L11.5107 6.25195ZM11.5996 7.20117L9.45215 7.40137C9.15138 7.42943 8.84862 7.42943 8.54785 7.40137L6.40039 7.20117C5.62379 7.1288 4.95313 7.73953 4.95312 8.51953C4.95312 9.29953 5.62379 9.91027 6.40039 9.83789L8.54785 9.6377C8.84862 9.60963 9.15138 9.60963 9.45215 9.6377L11.5996 9.83789C12.3762 9.91027 13.0469 9.29953 13.0469 8.51953C13.0469 7.73953 12.3762 7.1288 11.5996 7.20117ZM2.21973 9.39453C1.71513 9.39453 1.30566 8.98507 1.30566 8.48047V7.51074C1.30566 7.00614 1.71513 6.59668 2.21973 6.59668V9.39453ZM15.7783 6.5957C16.2827 6.59597 16.6914 7.00533 16.6914 7.50977V8.47949C16.6914 8.98393 16.2827 9.39329 15.7783 9.39355V6.5957ZM9 2C9.01798 2 8.95179 2.00024 8.80859 2.07617C8.67542 2.14679 8.5212 2.25922 8.37598 2.41016C8.07659 2.72134 7.90137 3.09758 7.90137 3.44824C7.90144 4.39807 8.53249 4.89648 9 4.89648C9.46749 4.89629 10.0976 4.39788 10.0977 3.44824C10.0977 3.03931 9.93354 2.66036 9.68652 2.38477C9.42895 2.09742 9.15824 2.00011 9 2Z" fill="url(#paint0_linear_9320_29195)"/>
<defs>
<linearGradient id="paint0_linear_9320_29195" x1="-0.39209" y1="10.3127" x2="24.8401" y2="10.3127" gradientUnits="userSpaceOnUse">
<stop stop-color="#C349E8"/>
<stop offset="1" stop-color="#2C7EF8"/>
</linearGradient>
</defs>
</svg>
